<?xml version="1.0" encoding="UTF-8"?><svg id="Capa_2" xmlns="http://www.w3.org/2000/svg" viewBox="0 0 659.01 51.54"><defs><style>.cls-1{fill:#f2f2f2;stroke-width:0px;}</style></defs><g id="Capa_1-2"><path class="cls-1" d="m71.89,1.27c-.08-.08-.2-.13-.33-.13h-9.17c-.13,0-.25.04-.33.13-.08.08-.13.19-.13.33v36.99c0,1.21-.42,2.23-1.26,3.07-.84.84-1.87,1.26-3.08,1.26H14.41c-1.18,0-2.19-.42-3.05-1.26-.86-.84-1.28-1.86-1.28-3.07v-6.73c0-.15-.12-.26-.26-.26H.26c-.15,0-.26.12-.26.26v5.31c0,3.96,1.41,7.35,4.24,10.15,2.82,2.81,6.21,4.21,10.18,4.21h43.19c4,0,7.4-1.4,10.21-4.21,2.8-2.81,4.21-6.19,4.21-10.15V1.6c0-.14-.04-.25-.13-.33Z"/><path class="cls-1" d="m139.57,1.15c4,0,7.4,1.4,10.2,4.21,2.8,2.81,4.21,6.21,4.21,10.2v21.57c0,4-1.4,7.4-4.21,10.2-2.81,2.81-6.21,4.21-10.2,4.21h-43.19c-3.96,0-7.36-1.4-10.18-4.21-2.82-2.8-4.23-6.21-4.23-10.2V15.56c0-4,1.41-7.4,4.23-10.2,2.82-2.8,6.21-4.21,10.18-4.21h43.19Zm4.33,12.95c0-1.18-.42-2.19-1.26-3.05-.84-.86-1.86-1.28-3.07-1.28h-43.19c-1.18,0-2.19.43-3.05,1.28-.86.86-1.28,1.87-1.28,3.05v24.49c0,1.18.43,2.19,1.28,3.05.86.86,1.87,1.28,3.05,1.28h43.19c1.21,0,2.23-.43,3.07-1.28.84-.86,1.26-1.87,1.26-3.05V14.1Z"/><path class="cls-1" d="m237.06,50.93c.07.13.06.27-.03.4-.08.13-.19.2-.33.2h-10.23c-.17,0-.3-.08-.4-.25l-7.51-15.82c-.61-1.19-1.47-2.16-2.56-2.89-1.24-.82-2.72-1.2-4.2-1.2h-37.52c-.15,0-.26.12-.26.26v19.44c0,.13-.04.24-.13.33s-.19.13-.33.13h-9.17c-.13,0-.24-.04-.33-.13-.08-.08-.13-.19-.13-.33V1.6c0-.13.04-.24.13-.33.08-.08.19-.13.33-.13h9.17c.13,0,.24.04.33.13.08.08.13.19.13.33v20.9c0,.15.12.26.26.26h37.49c1.48,0,2.97-.36,4.21-1.18,1.11-.73,1.97-1.72,2.58-2.95l7.51-15.77c.1-.17.23-.25.4-.25h10.23c.13,0,.24.06.33.18.08.12.09.26.03.43l-8.72,18.34c-1,2.06-2.32,3.83-3.97,5.3-.11.1-.12.28,0,.38,1.65,1.51,2.97,3.29,3.97,5.35l8.72,18.34Z"/><path class="cls-1" d="m257.2,21.75c0,.15.12.26.26.26h54.01c.13,0,.24.04.33.13.08.08.13.19.13.33v7.76c0,.13-.04.24-.13.33-.09.08-.19.13-.33.13h-54.01c-.15,0-.26.12-.26.26v7.65c0,1.18.42,2.19,1.26,3.05.84.86,1.86,1.28,3.07,1.28h57.15c.13,0,.24.04.33.13.08.08.13.18.13.28v7.76c0,.13-.04.24-.13.33-.08.08-.19.13-.33.13h-57.15c-4,0-7.4-1.4-10.2-4.21-2.81-2.8-4.21-6.21-4.21-10.2V15.56c0-4,1.4-7.4,4.21-10.2,2.8-2.8,6.21-4.21,10.2-4.21h57.15c.13,0,.24.04.33.13.08.08.13.19.13.33v7.76c0,.1-.04.19-.13.28-.08.08-.19.13-.33.13h-57.15c-1.21,0-2.23.43-3.07,1.28-.84.86-1.26,1.87-1.26,3.05v7.65Z"/><path class="cls-1" d="m401.05,20.6c0,2.92-.77,5.55-2.32,7.89-1.55,2.33-3.59,4.07-6.15,5.22l.2.4,8.01,16.83c.03.17.02.31-.05.43-.07.12-.18.18-.35.18h-10.23c-.07,0-.14-.02-.23-.05-.08-.03-.14-.08-.18-.15l-7.69-16.18c-.04-.09-.14-.15-.24-.15h-42.4c-.15,0-.26.12-.26.26v15.86c0,.1-.04.19-.13.28-.08.08-.19.13-.33.13h-9.22c-.1,0-.19-.04-.28-.13-.08-.08-.13-.18-.13-.28v-24.34c0-.13.04-.24.13-.33.08-.08.18-.13.28-.13h57.2c1.18,0,2.18-.42,3.02-1.26.84-.84,1.26-1.85,1.26-3.02v-7.91c0-1.21-.42-2.23-1.26-3.07-.84-.84-1.85-1.26-3.02-1.26h-57.2c-.1,0-.19-.04-.28-.13-.08-.08-.13-.19-.13-.33V1.6c0-.13.04-.24.13-.33.08-.08.18-.13.28-.13h57.2c3.96,0,7.35,1.41,10.15,4.23,2.8,2.82,4.21,6.22,4.21,10.18v5.04Z"/><path class="cls-1" d="m421.09,17.67c0,1.21.42,2.23,1.26,3.07.84.84,1.85,1.26,3.02,1.26h43.24c3.96,0,7.35,1.4,10.16,4.21,2.8,2.81,4.21,6.21,4.21,10.2v.71c0,3.96-1.4,7.36-4.21,10.18-2.81,2.82-6.19,4.23-10.16,4.23h-54.32c-.1,0-.19-.04-.28-.13-.09-.08-.13-.19-.13-.33v-7.76c0-.13.04-.24.13-.33.08-.08.18-.13.28-.13h54.32c1.18,0,2.18-.42,3.02-1.26.84-.84,1.26-1.85,1.26-3.02v-3.63c0-1.18-.42-2.19-1.26-3.05-.84-.86-1.85-1.28-3.02-1.28h-43.24c-3.97,0-7.35-1.4-10.15-4.21-2.81-2.8-4.21-6.19-4.21-10.15v-.41c0-3.98,1.51-7.87,4.36-10.65,2.77-2.71,6.11-4.06,10-4.06h54.32c.1,0,.19.04.28.13.08.08.13.18.13.28v7.81c0,.1-.04.19-.13.28-.08.08-.18.13-.28.13h-54.32c-1.18,0-2.18.42-3.02,1.26-.84.84-1.26,1.86-1.26,3.07v3.58Z"/><path class="cls-1" d="m501.59,18.37V6c0-3.48,1.73-5.23,5.19-5.23h7.67c3.46,0,5.19,1.74,5.19,5.23v12.37c0,3.49-1.73,5.23-5.19,5.23h-7.67c-3.46,0-5.19-1.74-5.19-5.23Zm3.34.33c0,1.24.63,1.85,1.89,1.85h7.61c1.26,0,1.89-.62,1.89-1.85V5.67c0-1.23-.63-1.85-1.89-1.85h-7.61c-1.26,0-1.89.62-1.89,1.85v13.03Z"/><path class="cls-1" d="m528.45,23.6V.77h15.08v3.04h-11.74v7.34h10.75v3.04h-10.75v9.4h-3.34Z"/><path class="cls-1" d="m562.75,22.83V0h3.67l11.15,17.5V0h3.34v22.83h-3.67l-11.15-17.5v17.5h-3.34Z"/><path class="cls-1" d="m590.04,22.83V0h15.08v3.04h-11.74v6.35h10.75v3.04h-10.75v7.34h11.74v3.04h-15.08Z"/><path class="cls-1" d="m612.67,17.6V5.23c0-3.48,1.73-5.23,5.19-5.23h7.67c3.46,0,5.19,1.74,5.19,5.23v12.37c0,3.49-1.73,5.23-5.19,5.23h-7.67c-3.46,0-5.19-1.74-5.19-5.23Zm3.34.33c0,1.24.63,1.85,1.89,1.85h7.61c1.26,0,1.89-.62,1.89-1.85V4.9c0-1.23-.63-1.85-1.89-1.85h-7.61c-1.26,0-1.89.62-1.89,1.85v13.03Z"/><path class="cls-1" d="m639.53,22.83V0h3.67l11.15,17.5V0h3.34v22.83h-3.67l-11.15-17.5v17.5h-3.34Z"/><path class="cls-1" d="m500.11,51.09c-.47,0-.86-.04-1.17-.13-.31-.08-.47-.19-.47-.33v-7.76c0-.13.15-.24.47-.33.31-.08.7-.13,1.17-.13h157.49c.47,0,.82.04,1.05.13.24.08.35.19.35.33v7.76c0,.13-.12.24-.35.33-.23.08-.58.13-1.05.13h-157.49Z"/></g></svg>